<?xml version="1.0" encoding="utf-8"?>
<!-- Generator: Adobe Illustrator 22.1.0, SVG Export Plug-In . SVG Version: 6.00 Build 0)  -->
<svg version="1.1" xmlns="http://www.w3.org/2000/svg" xmlns:xlink="http://www.w3.org/1999/xlink" x="0px" y="0px"
	 viewBox="0 0 795 800" style="enable-background:new 0 0 795 800;" xml:space="preserve">
<style type="text/css">
	.st0{fill:#343434;}
	.st1{fill:url(#XMLID_3_);}
	.st2{fill:url(#XMLID_4_);}
	.st3{fill:url(#XMLID_9_);}
	.st4{fill:url(#XMLID_14_);}
	.st5{fill:url(#XMLID_15_);}
	.st6{fill:url(#XMLID_16_);}
	.st7{fill:url(#XMLID_17_);}
	.st8{fill:url(#XMLID_18_);}
	.st9{fill:none;}
	.st10{fill:#FFFFFF;}
	.st11{fill:#CE3280;}
	.st12{fill:#D61274;}
</style>
<g id="Layer_2">
	
		<rect id="XMLID_21_" x="188.3" y="190.3" transform="matrix(0.7071 -0.7071 0.7071 0.7071 -166.6302 399.379)" class="st0" width="421" height="421"/>
	<linearGradient id="XMLID_3_" gradientUnits="userSpaceOnUse" x1="212.2363" y1="212.6528" x2="237.4863" y2="237.9028">
		<stop  offset="0" style="stop-color:#00FFFF"/>
		<stop  offset="0.1492" style="stop-color:#19F4F1"/>
		<stop  offset="0.3519" style="stop-color:#33E8E2"/>
		<stop  offset="0.5593" style="stop-color:#46E0D7"/>
		<stop  offset="0.7724" style="stop-color:#51DBD1"/>
		<stop  offset="1" style="stop-color:#55D9CF"/>
	</linearGradient>
	<polygon id="XMLID_1_" class="st1" points="68.3,400 25.3,400 399.4,25.5 399.4,76 	"/>
	
		<linearGradient id="XMLID_4_" gradientUnits="userSpaceOnUse" x1="-141.7081" y1="212.5972" x2="-116.4581" y2="237.8472" gradientTransform="matrix(-1 0 0 1 444.7782 0)">
		<stop  offset="0" style="stop-color:#E6DD00"/>
		<stop  offset="5.683780e-02" style="stop-color:#ECDF14"/>
		<stop  offset="0.1397" style="stop-color:#F3E12A"/>
		<stop  offset="0.2375" style="stop-color:#F8E33B"/>
		<stop  offset="0.3586" style="stop-color:#FBE446"/>
		<stop  offset="0.5284" style="stop-color:#FDE54D"/>
		<stop  offset="1" style="stop-color:#FEE54F"/>
	</linearGradient>
	<polygon id="XMLID_7_" class="st2" points="728.3,400 773.3,400 399.4,25.5 399.4,76 	"/>
	
		<linearGradient id="XMLID_9_" gradientUnits="userSpaceOnUse" x1="-141.8331" y1="-162.2778" x2="-116.5831" y2="-137.0278" gradientTransform="matrix(-1 0 0 -1 444.7782 425.5)">
		<stop  offset="0" style="stop-color:#E6DD00"/>
		<stop  offset="5.683780e-02" style="stop-color:#ECDF14"/>
		<stop  offset="0.1397" style="stop-color:#F3E12A"/>
		<stop  offset="0.2375" style="stop-color:#F8E33B"/>
		<stop  offset="0.3586" style="stop-color:#FBE446"/>
		<stop  offset="0.5284" style="stop-color:#FDE54D"/>
		<stop  offset="1" style="stop-color:#FEE54F"/>
	</linearGradient>
	<polygon id="XMLID_8_" class="st3" points="728.3,400 773.3,400 399.4,775 399.4,724.5 	"/>
	
		<linearGradient id="XMLID_14_" gradientUnits="userSpaceOnUse" x1="135.1113" y1="407.4167" x2="159.9169" y2="432.2222" gradientTransform="matrix(4.489700e-11 -1 1 4.489700e-11 -195.3609 722.1391)">
		<stop  offset="0" style="stop-color:#00FFFF"/>
		<stop  offset="0.1492" style="stop-color:#19F4F1"/>
		<stop  offset="0.3519" style="stop-color:#33E8E2"/>
		<stop  offset="0.5593" style="stop-color:#46E0D7"/>
		<stop  offset="0.7724" style="stop-color:#51DBD1"/>
		<stop  offset="1" style="stop-color:#55D9CF"/>
	</linearGradient>
	<polygon id="XMLID_6_" class="st4" points="399.4,724.8 399.4,773.8 25,400 68.5,400 	"/>
	<linearGradient id="XMLID_15_" gradientUnits="userSpaceOnUse" x1="232.0557" y1="236.2222" x2="258.5557" y2="262.7222">
		<stop  offset="0" style="stop-color:#EC4793"/>
		<stop  offset="0.2069" style="stop-color:#ED4F98"/>
		<stop  offset="0.5319" style="stop-color:#EF66A5"/>
		<stop  offset="0.9326" style="stop-color:#F28ABB"/>
		<stop  offset="1" style="stop-color:#F391BF"/>
	</linearGradient>
	<polygon id="XMLID_5_" class="st5" points="399.4,76 399.4,120 121.3,400 68.3,400 	"/>
	
		<linearGradient id="XMLID_16_" gradientUnits="userSpaceOnUse" x1="-77.2776" y1="236.7778" x2="-51.7776" y2="262.2778" gradientTransform="matrix(-1 0 0 1 487.7782 0)">
		<stop  offset="0" style="stop-color:#EC4793"/>
		<stop  offset="0.2069" style="stop-color:#ED4F98"/>
		<stop  offset="0.5319" style="stop-color:#EF66A5"/>
		<stop  offset="0.9326" style="stop-color:#F28ABB"/>
		<stop  offset="1" style="stop-color:#F391BF"/>
	</linearGradient>
	<polygon id="XMLID_11_" class="st6" points="399.4,76 399.4,120 677.3,400 728.3,400 	"/>
	
		<linearGradient id="XMLID_17_" gradientUnits="userSpaceOnUse" x1="-77.2776" y1="-87.2222" x2="-51.7776" y2="-61.7222" gradientTransform="matrix(-1 0 0 -1 487.7782 476)">
		<stop  offset="0" style="stop-color:#EC4793"/>
		<stop  offset="0.2069" style="stop-color:#ED4F98"/>
		<stop  offset="0.5319" style="stop-color:#EF66A5"/>
		<stop  offset="0.9326" style="stop-color:#F28ABB"/>
		<stop  offset="1" style="stop-color:#F391BF"/>
	</linearGradient>
	<polygon id="XMLID_12_" class="st7" points="399.4,724 399.4,680 677.3,400 728.3,400 	"/>
	
		<linearGradient id="XMLID_18_" gradientUnits="userSpaceOnUse" x1="232.3057" y1="-88.0278" x2="258.8057" y2="-61.5278" gradientTransform="matrix(1 0 0 -1 0 476)">
		<stop  offset="0" style="stop-color:#EC4793"/>
		<stop  offset="0.2069" style="stop-color:#ED4F98"/>
		<stop  offset="0.5319" style="stop-color:#EF66A5"/>
		<stop  offset="0.9326" style="stop-color:#F28ABB"/>
		<stop  offset="1" style="stop-color:#F391BF"/>
	</linearGradient>
	<polygon id="XMLID_10_" class="st8" points="399.4,725 399.4,680 121.3,400 68.3,400 	"/>
	<line id="XMLID_13_" class="st9" x1="382.7" y1="416.4" x2="440.8" y2="397.2"/>
</g>
<g id="Layer_3">
	<path id="XMLID_38_" class="st10" d="M397.4,411.5v0.3l-52,16.5c-6.3,2.3-9-2.9-10-6.6V318.8c0-3.9-3-6.8-6.9-6.8h-25
		c-4,0-7.1,2.9-7.1,6.8v225.1c0,3.9,3.1,7.1,7.1,7.1h25c3.9,0,6.9-3.2,6.9-7.1v-53.2c2-8.8,9.6-12.2,9.6-12.2l44.5-14.3
		c4.2-0.4,6.9,1.3,7.9,3.7v76.1c0,3.9,3.6,7.1,7.6,7.1h25c3.9,0,7.4-3.2,7.4-7.1V398.5L397.4,411.5z M398.8,476.8l0.1-2.5
		C398.9,475.8,398.8,476.8,398.8,476.8z"/>
	<path id="XMLID_35_" class="st10" d="M400.4,388.5v-0.3l52-16.5c6.3-2.3,9,2.9,10,6.6v102.9c0,3.9,2.8,6.8,6.7,6.8h25
		c4,0,7.3-2.9,7.3-6.8V256.1c0-3.9-3.3-7.1-7.3-7.1h-25c-3.9,0-6.7,3.2-6.7,7.1v53.2c-2,8.8-9.7,12.2-9.7,12.2l-44.4,14.3
		c-4.2,0.4-6.9-1.3-7.9-3.7v-76.1c0-3.9-3.8-7.1-7.8-7.1h-25c-3.9,0-7.2,3.2-7.2,7.1v145.4L400.4,388.5z M398.8,323.2l-0.1,2.5
		C398.6,324.2,398.8,323.2,398.8,323.2z"/>
	<path id="XMLID_34_" class="st11" d="M398.8,476.8l0.1-2.5C398.9,475.8,398.8,476.8,398.8,476.8z"/>
	<path id="XMLID_30_" class="st12" d="M398.8,476.8l0.1-2.5C398.9,475.8,398.8,476.8,398.8,476.8z"/>
</g>
</svg>
